<?xml version="1.0" encoding="UTF-8"?>
<!DOCTYPE svg PUBLIC "-//W3C//DTD SVG 1.1//EN" "http://www.w3.org/Graphics/SVG/1.1/DTD/svg11.dtd">
<!-- Creator: CorelDRAW -->
<svg xmlns="http://www.w3.org/2000/svg" xml:space="preserve" width="172.212mm" height="146.779mm" version="1.1" style="shape-rendering:geometricPrecision; text-rendering:geometricPrecision; image-rendering:optimizeQuality; fill-rule:evenodd; clip-rule:evenodd"
viewBox="0 0 10991.82 9368.52"
 xmlns:xlink="http://www.w3.org/1999/xlink"
 xmlns:xodm="http://www.corel.com/coreldraw/odm/2003">
 <defs>
  <style type="text/css">
   <![CDATA[
    .fil0 {fill:#A2D9F7}
    .fil1 {fill:#2B9FD9}
   ]]>
  </style>
 </defs>
 <g id="Layer_x0020_1">
  <metadata id="CorelCorpID_0Corel-Layer"/>
  <g id="_2147619936">
   <path class="fil0" d="M9094.13 1416.88l-238.39 -238.39c-268.67,-268.67 -268.67,-708.32 0.01,-976.99 268.67,-268.67 708.32,-268.67 976.99,0l1159.08 1159.08 0 2074.07c-96.16,-6.61 -194.55,26.83 -268.06,100.34 -134.9,134.9 -134.9,353.6 0,488.5l268.06 268.06 0 2622c-1751.41,-3274.2 -234.65,1051.36 -1745.28,-459.3l-238.39 -238.38c-134.89,-134.9 -353.6,-134.9 -488.5,0 -134.89,134.89 -134.89,353.6 0,488.5l1256.41 1256.41c268.67,268.67 268.67,708.32 -0.01,976.99 -268.67,268.67 -708.32,268.67 -976.99,0l-1256.41 -1256.41 -41.03 -41.03c-678.69,-678.69 -1357.36,-1357.37 -2036.05,-2036.05l-41.03 -41.03 -1256.41 -1256.41c-268.67,-268.67 -268.68,-708.32 0,-976.99 268.67,-268.67 708.32,-268.67 976.99,0l1256.41 1256.41c134.89,134.89 353.6,134.89 488.49,0 134.89,-134.89 134.9,-353.6 0,-488.5l-238.38 -238.39c-268.67,-268.67 -268.67,-708.32 0,-976.99 268.67,-268.67 708.32,-268.67 977,0l-1256.41 -1256.41c-268.67,-268.67 -268.68,-708.32 -0.01,-977 268.67,-268.67 708.32,-268.67 976.99,0l1256.41 1256.41c134.89,134.89 353.6,134.89 488.5,0 134.89,-134.89 134.9,-353.61 0,-488.5z"/>
   <path class="fil1" d="M7866.66 5127.89l-238.39 -238.39c-268.67,-268.67 -268.67,-708.32 0.01,-976.99 268.67,-268.67 708.32,-268.67 976.99,0l2386.55 2386.55 0 1328.02c-253.51,111.74 -561.76,64.2 -768.65,-142.69l-238.38 -238.39c-134.9,-134.89 -353.6,-134.89 -488.5,0 -134.9,134.9 -134.9,353.6 0,488.5l1256.41 1256.41c106.2,106.2 170.37,239.1 192.62,377.6l-1769.01 0 -180.25 -180.25c-113.73,-113.73 -83.03,-4.23 -30.18,180.25l-4674.54 0 -53.24 -53.24 -41.03 -41.03 -1256.41 -1256.41c-268.67,-268.67 -268.68,-708.32 0,-976.99 268.67,-268.67 708.32,-268.67 976.99,0l1256.41 1256.41c134.89,134.89 353.6,134.89 488.49,0 134.89,-134.89 134.9,-353.6 0,-488.5l-238.38 -238.39c-268.67,-268.67 -268.67,-708.32 0,-976.99 268.67,-268.67 708.32,-268.67 977,0l-1256.41 -1256.41c-268.67,-268.67 -268.68,-708.32 -0.01,-977 268.67,-268.67 708.32,-268.67 976.99,0l1256.41 1256.41c134.89,134.89 353.6,134.89 488.5,0 134.89,-134.89 134.9,-353.61 0,-488.5z"/>
   <path class="fil1" d="M4675.78 6349.28c299.43,0 542.17,-242.74 542.17,-542.17 0,-299.43 -242.74,-542.17 -542.17,-542.17 -299.43,0 -542.16,242.74 -542.16,542.17 0,299.43 242.74,542.17 542.16,542.17z"/>
   <path class="fil1" d="M3821.41 5326.98c210.69,0 381.51,-170.81 381.51,-381.51 0,-210.7 -170.82,-381.51 -381.51,-381.51 -210.7,0 -381.51,170.81 -381.51,381.51 0,210.7 170.81,381.51 381.51,381.51z"/>
   <path class="fil1" d="M3121.82 4515.69c146.94,0 266.04,-119.11 266.04,-266.04 0,-146.93 -119.11,-266.04 -266.04,-266.04 -146.94,0 -266.04,119.11 -266.04,266.04 0,146.94 119.11,266.04 266.04,266.04z"/>
   <path class="fil0" d="M3587.11 9368.52c-113.75,-325.3 -423.32,-558.65 -787.42,-558.65 -364.11,0 -673.67,233.36 -787.41,558.65l1574.83 0z"/>
   <path class="fil0" d="M1485.43 8905.29c324.11,0 586.88,-262.76 586.88,-586.89 0,-324.11 -262.77,-586.88 -586.88,-586.88 -324.12,0 -586.87,262.76 -586.87,586.88 0,324.12 262.75,586.89 586.87,586.89z"/>
   <path class="fil0" d="M409.25 7657.28c226.03,0 409.26,-183.22 409.26,-409.25 0,-226.02 -183.23,-409.25 -409.26,-409.25 -226.03,0 -409.25,183.24 -409.25,409.25 0,226.03 183.22,409.25 409.25,409.25z"/>
  </g>
 </g>
</svg>
