<?xml version="1.0" encoding="UTF-8"?>
<!DOCTYPE svg PUBLIC "-//W3C//DTD SVG 1.1//EN" "http://www.w3.org/Graphics/SVG/1.1/DTD/svg11.dtd">
<!-- Creator: CorelDRAW -->
<svg xmlns="http://www.w3.org/2000/svg" xml:space="preserve" width="126.558mm" height="98.731mm" version="1.1" style="shape-rendering:geometricPrecision; text-rendering:geometricPrecision; image-rendering:optimizeQuality; fill-rule:evenodd; clip-rule:evenodd"
viewBox="0 0 7621.92 5946.05"
 xmlns:xlink="http://www.w3.org/1999/xlink"
 xmlns:xodm="http://www.corel.com/coreldraw/odm/2003">
 <defs>
  <style type="text/css">
   <![CDATA[
    .fil0 {fill:#2B9FD9}
    .fil1 {fill:#A2D9F7}
   ]]>
  </style>
 </defs>
 <g id="Layer_x0020_1">
  <metadata id="CorelCorpID_0Corel-Layer"/>
  <g id="_1050434480">
   <path class="fil0" d="M1454.68 4241.86l286.72 286.72c323.15,323.15 323.15,851.95 -0.01,1175.11 -323.15,323.15 -851.95,323.15 -1175.1,-0.01l-566.3 -566.3 0 -5137.38 6613.66 0 765.9 765.9c323.15,323.15 323.16,851.95 0,1175.11 -323.15,323.15 -851.95,323.15 -1175.1,0l-1511.18 -1511.18c-162.25,-162.24 -425.31,-162.24 -587.55,0 -162.25,162.25 -162.25,425.31 0,587.55l286.72 286.72c323.15,323.15 323.15,851.95 -0.01,1175.11 -323.15,323.15 -851.95,323.15 -1175.11,-0.01l1511.18 1511.18c323.15,323.15 323.16,851.95 0.01,1175.11 -323.15,323.15 -851.95,323.15 -1175.1,0l-1511.19 -1511.18c-162.24,-162.25 -425.31,-162.25 -587.55,0 -162.25,162.25 -162.25,425.31 0,587.55z"/>
   <path class="fil1" d="M1454.68 4241.86l177.73 177.73c-7.74,8.61 -15.73,17.07 -24.01,25.35 -253.51,253.5 -668.34,253.5 -921.85,0l-686.55 -686.54 0 -3758.39 2694.57 0 993.52 993.53c253.51,253.51 253.52,668.34 0,921.85 -253.5,253.5 -668.34,253.5 -921.85,0l-1185.5 -1185.5c-127.28,-127.28 -333.65,-127.28 -460.92,0 -127.28,127.28 -127.29,333.65 0,460.92l224.93 224.93c253.51,253.51 253.51,668.34 0,921.85 -253.5,253.5 -668.34,253.5 -921.85,-0.01l1185.49 1185.5c8.45,8.45 16.6,17.09 24.48,25.88 -65.24,18.83 -126.79,53.93 -178.19,105.34 -162.25,162.25 -162.25,425.31 0,587.55z"/>
  </g>
 </g>
</svg>
